<?xml version="1.0" standalone="no"?>
<!DOCTYPE svg PUBLIC "-//W3C//DTD SVG 20010904//EN"
 "http://www.w3.org/TR/2001/REC-SVG-20010904/DTD/svg10.dtd">
<svg version="1.0" xmlns="http://www.w3.org/2000/svg"
 width="500.000000pt" height="500.000000pt" viewBox="0 0 500.000000 500.000000"
 preserveAspectRatio="xMidYMid meet">

<g transform="translate(0.000000,500.000000) scale(0.100000,-0.100000)"
fill="#000000" stroke="none">
<path d="M586 3184 c-61 -153 -105 -476 -91 -679 26 -403 116 -705 288 -968
106 -163 299 -371 457 -492 52 -40 131 -103 175 -140 178 -149 528 -281 837
-314 199 -22 527 -11 703 24 39 7 89 17 113 20 23 4 42 10 42 15 0 4 -10 6
-22 2 -14 -3 -19 -2 -14 6 4 7 15 12 24 12 27 1 -68 41 -118 50 -25 5 -84 25
-132 45 -48 20 -114 41 -145 48 -32 6 -60 14 -63 18 -3 3 -25 9 -50 12 -81 10
-344 57 -374 67 -16 6 -42 10 -58 10 -15 0 -36 4 -46 9 -9 5 -55 24 -102 42
-47 18 -93 40 -102 49 -35 32 -264 156 -344 186 -108 41 -247 128 -329 206
-16 16 -41 36 -55 45 -21 13 -45 39 -126 135 -19 24 -65 100 -98 162 -17 34
-39 72 -48 86 -24 37 -70 157 -124 325 -26 83 -51 155 -56 161 -9 13 -40 274
-63 534 -9 102 -23 218 -31 259 -7 40 -11 78 -8 82 3 5 0 9 -6 9 -7 0 -9 8 -5
20 14 45 -5 15 -29 -46z"/>
<path d="M3150 667 c-19 -5 -28 -12 -20 -14 8 -2 35 3 60 11 31 10 37 14 20
14 -14 0 -41 -5 -60 -11z"/>
</g>
</svg>
