<?xml version="1.0" standalone="no"?>
<!DOCTYPE svg PUBLIC "-//W3C//DTD SVG 20010904//EN"
 "http://www.w3.org/TR/2001/REC-SVG-20010904/DTD/svg10.dtd">
<svg version="1.0" xmlns="http://www.w3.org/2000/svg"
 width="500.000000pt" height="500.000000pt" viewBox="0 0 500.000000 500.000000"
 preserveAspectRatio="xMidYMid meet">

<g transform="translate(0.000000,500.000000) scale(0.100000,-0.100000)"
fill="#000000" stroke="none">
<path d="M0 2500 l0 -2500 2500 0 2500 0 0 2500 0 2500 -2500 0 -2500 0 0
-2500z m2793 2074 c315 -48 612 -158 832 -309 371 -254 623 -579 777 -1001 21
-61 28 -96 26 -135 l-3 -53 -140 -64 c-165 -75 -297 -132 -306 -132 -7 0 -68
-28 -300 -136 -63 -30 -118 -54 -121 -54 -3 0 -79 -35 -169 -79 -157 -75 -214
-102 -379 -178 -143 -66 -265 -124 -280 -133 -8 -5 -40 -21 -70 -36 -30 -15
-67 -35 -82 -45 -14 -11 -32 -19 -38 -19 -12 0 -103 -39 -255 -110 -45 -21
-95 -41 -113 -44 -17 -4 -101 -40 -187 -81 l-155 -73 96 -7 c52 -4 115 -5 140
-1 24 3 117 1 206 -4 318 -19 516 -30 703 -40 105 -6 260 -15 345 -20 85 -5
238 -15 340 -20 552 -32 650 -39 659 -45 26 -15 10 -55 -93 -235 -72 -124
-152 -225 -274 -347 -68 -68 -137 -131 -153 -140 -16 -10 -29 -21 -29 -25 0
-4 -5 -8 -10 -8 -11 0 -105 -70 -194 -144 -103 -86 -208 -137 -365 -176 -68
-17 -126 -28 -129 -25 -3 3 4 9 17 12 20 5 16 9 -30 29 -30 13 -66 23 -80 24
-14 0 -44 9 -67 20 -61 30 -216 80 -246 80 -14 0 -26 4 -26 9 0 5 -21 11 -47
14 -59 6 -314 51 -403 71 -121 27 -222 66 -295 116 -82 55 -260 151 -326 175
-88 31 -135 56 -190 97 -24 18 -55 41 -69 49 -14 9 -38 29 -55 44 -16 14 -46
38 -64 53 -39 30 -107 102 -131 137 -8 12 -27 40 -41 61 -14 22 -43 72 -63
112 -21 39 -41 74 -45 77 -13 7 -76 172 -127 330 -26 83 -51 155 -55 160 -11
17 -35 217 -70 590 -6 66 -17 156 -24 199 -8 44 -12 83 -9 88 3 4 0 8 -6 8 -7
0 -9 9 -5 23 5 20 5 20 -9 -3 -21 -35 -20 -24 9 64 88 268 325 601 588 824
133 113 356 255 492 315 146 63 296 106 475 137 142 24 479 26 623 4z"/>
<path d="M2990 3764 c-165 -53 -258 -158 -248 -279 8 -98 96 -233 179 -275
146 -75 389 78 389 245 0 96 -83 233 -173 285 -50 28 -105 37 -147 24z"/>
<path d="M1737 3156 c-115 -42 -206 -127 -226 -214 -31 -128 106 -337 233
-356 121 -18 293 92 326 209 16 57 7 112 -30 189 -37 77 -90 132 -154 162 -58
27 -94 29 -149 10z"/>
</g>
</svg>
